<svg width="321" height="436" viewBox="0 0 321 436" fill="none" xmlns="http://www.w3.org/2000/svg">
<g clip-path="url(#clip0_512_360)">
<path d="M143.01 89.0392C139.183 88.4781 134.984 88.6374 131.293 87.7105C133.75 91.7916 134.446 97.393 136.122 101.845C141.466 115.919 153.171 117.64 164.574 122.763C157.246 114.93 149.33 107.68 142.261 99.6167C141.763 99.054 142.663 98.3714 143.203 98.7815C151.44 104.97 158.57 111.799 165.163 119.023C162.823 105.515 159.629 91.4654 143.01 89.0392Z" fill="#E9D6CF"/>
<path d="M229.814 136.346C229.749 135.871 230.438 135.647 230.675 136.04C232.97 139.711 234.407 143.661 235.341 147.737C243.631 141.903 247.151 132.7 236.79 125.247C232.725 122.321 228.57 119.927 225.812 116.124C226.057 121.137 223.114 125.982 222.386 131.199C221.312 138.89 225.489 145.173 232.276 147.546C231.349 143.831 230.315 140.148 229.814 136.346Z" fill="#E9D6CF"/>
<path d="M182.735 58.9468C182.565 58.6629 182.964 58.3933 183.161 58.6571C188.203 65.2771 193.479 72.1426 198.057 79.3817C199.312 73.7714 201.896 68.4603 199.201 62.529C195.944 55.3612 190.777 50.331 183.719 46.9285C180.884 45.5634 177.888 44.5705 175.221 43.1221C176.338 46.4058 176.634 50.0568 177.006 53.6558C178.338 66.5699 185.512 76.2698 196.375 82.6487C192.201 74.6062 187.47 66.8267 182.735 58.9468Z" fill="#E9D6CF"/>
<path d="M263.854 105.15C263.612 104.509 264.598 103.997 264.946 104.602C269.474 112.426 272.538 120.492 274.694 128.721C283.591 120.035 284.14 106.494 274.47 97.6539C270.811 94.2965 266.26 91.6168 262.538 88.2604C262.764 91.7543 261.644 95.5778 260.699 98.8658C258.991 104.772 257.506 110.491 260.224 116.497C262.705 121.995 266.546 125.245 270.835 128.719C269.07 120.855 266.841 113.019 263.854 105.15Z" fill="#E9D6CF"/>
<path d="M160.609 146.7C154.854 148.788 151.316 153.802 146.12 156.481C151.448 159.168 154.991 165.103 160.879 167.311C165.488 169.041 172.281 170.197 175.703 165.552C177.258 163.433 178.177 161.045 179.722 158.923C174.281 157.828 168.751 157.243 163.364 157.2C163.109 157.197 163.089 156.857 163.336 156.824C168.497 156.112 173.647 156.047 178.666 156.615C176.025 149.403 168.954 143.68 160.609 146.7Z" fill="#E9D6CF"/>
<path d="M206.746 257.248C198.805 253.054 186.837 257.921 183.067 265.646C180.701 270.502 179.365 276.215 176.651 280.967C181.323 280.435 186.383 282.313 190.989 283.023C198.662 284.191 207.126 280.856 208.295 272.133C208.765 268.714 208.215 265.534 207.944 262.253C205.051 264.074 202.156 265.88 199.179 267.327C198.528 267.635 197.838 266.776 198.167 266.188C200.133 262.633 203.186 259.646 206.746 257.248Z" fill="#E9D6CF"/>
<path d="M286.4 181.172C289.826 178.304 293.816 176.155 297.832 175.057C298.355 174.911 298.987 175.591 298.497 176.038C295.678 178.574 292.648 180.813 289.848 183.32C298.268 187.199 306.815 194.215 314.218 183.546C317.94 178.191 319.409 172.635 320.036 166.25C320.233 164.246 320.413 162.902 320.988 161.606C316.436 164.537 311.314 164.252 305.847 163.607C294.57 162.261 286.468 170.592 286.4 181.172Z" fill="#E9D6CF"/>
<path d="M236.083 208.756C229.85 208.047 225.029 209.853 219.587 212.644C217.818 213.559 216.419 214.24 214.743 214.556C220.701 219.81 222.972 229.186 230.671 232.913C239.367 237.125 244.429 232.543 250.02 227.395C244.723 226.045 239.438 224.687 234.864 222.162C234.256 221.822 234.541 220.884 235.247 221.003C239.701 221.761 245.986 222.735 252.25 224.399C249.826 216.25 245.743 209.842 236.083 208.756Z" fill="#E9D6CF"/>
<path d="M163.116 185.763C158.223 184.994 152.78 184.928 148.164 183.063C151.64 190.85 149.788 200.429 155.494 207.29C161.844 214.916 171.544 215.038 180.225 218.025C174.157 212.239 168.426 206.102 163.152 199.605C162.796 199.16 163.468 198.609 163.886 198.953C170.4 204.296 176.593 209.725 182.74 215.044C182.839 210.501 183.512 205.888 181.947 201.505C178.802 192.682 172.37 187.209 163.116 185.763Z" fill="#E9D6CF"/>
<path d="M323.736 159.54C325.755 169.824 321.895 186.219 311.706 191.469C302.623 196.151 295.177 191.392 288.501 184.845C288.454 184.797 288.463 184.731 288.419 184.683C287.678 185.396 286.943 186.109 286.251 186.901C282.835 190.881 280.845 195.233 278.593 199.859C278.192 215.998 278.294 232.048 281.38 247.571C285.881 255.322 290.472 262.986 295.189 270.484C293.855 263.711 293.766 256.462 296.71 250.303C296.073 249.897 295.474 249.374 294.968 248.628C294.276 247.606 293.976 246.712 293.831 245.488C293.345 241.169 298.461 237.701 302.29 239.755C302.451 239.846 302.564 239.948 302.707 240.036C305.798 241.604 307.593 246.15 304.702 248.864C304.593 248.961 304.498 249.05 304.395 249.144C302.825 250.619 300.759 251.33 298.836 251.071C297.903 255.034 297.036 258.949 297.014 263.144C296.986 266.98 297.333 270.824 297.863 274.621C312.289 297.243 327.676 318.974 344.72 340.328C345.121 340.823 344.34 341.521 343.886 341.074C326.78 324.551 312.769 305.792 300.059 286.072C299.913 286.05 299.767 286.056 299.647 285.957C290.02 279.071 280.791 272.67 270.53 267.458C270.429 267.95 270.13 268.411 269.451 268.498C262.968 269.28 258.992 273.135 254.696 277.296C257.099 279.687 256.141 284.264 253.512 286.045C250.845 287.854 247.172 287.107 245.343 284.481C245.279 284.389 245.221 284.298 245.162 284.214C243.372 281.607 244.115 277.904 246.724 276.139C248.437 274.975 250.216 274.962 251.912 275.592C253.738 269.795 261.442 266.629 267.389 266.046C264.992 264.904 262.602 263.736 260.062 262.741C252.836 259.916 245.401 257.418 238.091 254.655C237.951 254.921 237.628 255.103 237.25 254.965C227.081 251.173 218.842 255.463 210.779 260.471C216.21 268.605 211.582 280.461 203.944 285.649C200.063 288.297 194.547 288.506 190.091 287.682C183.985 286.56 178.22 285.942 172.082 285.302C171.076 285.197 170.786 284.062 171.178 283.28C173.836 274.047 178.024 260.144 187.368 255.553C193.669 252.466 203.375 250.324 208.544 256.136C215.147 252.255 223.209 250.495 230.476 251.592C228.696 250.843 226.917 250.123 225.181 249.299C220.39 247.044 215.764 244.465 211.219 241.743C206.647 240.855 201.883 240.172 197.262 240.068C194.311 240.011 191.214 240.642 188.228 240.651C188.229 243.53 186.473 246.348 183.061 246.214C182.925 246.206 182.786 246.198 182.648 246.198C178.358 246.016 174.869 242.088 176.931 237.762C178.521 234.428 183.279 233.192 186.084 235.811C186.192 235.907 186.302 236.009 186.401 236.107C186.947 236.609 187.333 237.25 187.62 237.925C191.054 236.683 195.341 236.929 198.722 237.224C201.348 237.455 203.824 237.997 206.275 238.695C198.284 233.521 190.723 227.689 183.661 221.291C183.534 221.316 183.436 221.381 183.29 221.339C173.648 218.459 163.031 218.374 155.232 211.392C146.397 203.484 149.037 189.574 143.333 180.011C142.648 178.865 144.169 177.268 145.178 178.352C145.304 178.488 145.374 178.652 145.496 178.794C154.619 179.168 168.095 180.44 175.306 185.884C186.773 194.535 186.821 204.803 187.202 217.984C187.211 218.278 187.151 218.522 187.075 218.755C202.675 232.07 218.472 244.269 239.14 251.827C257.168 258.422 279.89 264.183 294.751 277.707C289.145 268.652 283.737 259.429 278.418 250.153C276.132 247.954 272.741 246.571 269.744 246.047C268.139 245.769 266.49 245.614 264.859 245.711C264.429 247.574 263.199 249.262 261.151 249.957C256.497 251.531 251.47 246.407 253.957 241.838C253.969 241.799 253.997 241.758 254.021 241.708C255.527 238.92 258.725 237.647 261.681 239.002C261.715 239.029 261.759 239.047 261.801 239.066C263.613 239.902 264.641 241.463 264.955 243.151C267.131 242.95 269.683 243.452 271.011 243.84C272.83 244.367 274.555 245.09 276.088 246.078C275.198 244.497 274.29 242.92 273.383 241.338C272.419 239.634 271.415 237.942 270.433 236.246C265.7 231.961 259.658 229.933 253.414 228.269C250.803 236.592 240.78 240.899 232.552 238.848C226.996 237.456 222.299 232.837 219.004 228.358C215.881 224.109 211.839 218.942 211.18 213.581C211.117 213.097 211.601 212.784 212.06 212.799C224.271 201.153 256.957 203.337 254.652 225.043C259.175 226.397 263.543 228.165 267.113 230.497C260.636 219.262 254.046 208.094 247.296 196.996C247.149 197.08 246.966 197.117 246.777 196.972C239.585 191.369 231.276 186.667 223.07 181.791C218.077 181.558 212.514 182.585 207.544 183.932C208.212 185.905 207.85 188.161 205.627 189.666C200.062 193.435 194.206 184.793 199.769 181.022C202.267 179.332 204.765 180.189 206.313 181.92C208.846 180.754 211.393 179.733 214.224 179.443C215.967 179.26 217.591 179.334 219.209 179.489C213.111 175.775 207.252 171.786 202.005 167.204C195.711 163.534 188.647 160.917 181.346 159.283C182.942 167.308 174.327 173.759 166.729 172.544C158.439 171.213 146.692 165.316 143.874 156.669C143.538 156.261 143.435 155.655 143.822 155.218C149.56 148.826 158.576 142.362 167.631 143.927C174.566 145.132 181.98 149.213 181.823 157.083C186.927 157.952 191.881 159.529 196.588 161.86C195.859 161.054 195.06 160.315 194.367 159.47C185.766 148.832 177.824 137.717 168.83 127.4C157.986 125.849 147.112 122.805 138.827 115.365C130.131 107.556 130.615 93.9265 125.134 84.0688C125.005 83.9196 124.843 83.8091 124.71 83.6429C124.329 83.1409 124.871 82.5736 125.39 82.6265C136.418 83.5674 149.029 84.2628 157.734 92.0117C167.535 100.727 169.566 111.161 170.069 123.837C170.075 124.06 170.026 124.24 169.978 124.431C178.125 133.912 185.603 144.021 193.558 154.333C193.945 154.825 194.39 155.22 194.778 155.702C194.988 149.853 194.043 144.324 192.678 138.664C187.662 140.116 183.311 132.779 188.374 129.349C193.958 125.565 199.827 134.228 194.245 138.011C194.103 138.106 193.971 138.101 193.836 138.18C196.634 144.145 197.148 150.701 196.166 157.259C210.188 173.214 230.679 180.767 246.171 195.12C234.48 175.919 222.41 156.945 209.819 138.364C204.53 132.711 200.278 125.966 196.447 119.277C190.591 122.348 184.856 113.574 190.714 109.605C196.314 105.811 202.036 113.478 198.152 117.919C202.113 122.9 206.077 128.045 209.603 133.42C207.697 124.913 208.9 115.819 206.423 107.174C204.292 99.7254 201.361 92.7157 197.999 85.9208C189.064 82.1897 180.765 78.4907 176.192 69.1234C171.513 59.5357 172.23 48.6876 169.874 38.42C169.787 38.2797 169.669 38.1731 169.587 38.0244C169.009 37.0767 169.978 35.7064 171.068 36.3006C183 42.7703 194.6 45.065 202.12 57.536C207.243 66.0318 205.689 75.3482 200.267 83.0219C203.547 88.6431 206.325 94.5021 208.125 100.701C211.59 112.575 212.213 124.965 213.237 137.26C220.686 148.206 227.918 159.297 235.043 170.455C234.034 165.2 234.535 159.995 233.769 154.601C233.61 153.501 233.385 152.422 233.151 151.346C227.358 153.37 221.219 145.102 219.463 140.496C215.899 131.173 221.554 121.453 223.796 112.311C223.71 112.106 223.603 111.914 223.525 111.684C223.201 110.69 224.512 110.105 225.123 110.896C232.008 119.803 247.303 123.485 247.491 136.5C247.581 142.84 242.377 150.011 236.013 151.164C237.103 158.186 236.843 165.498 236.354 172.522C249.751 193.571 262.626 214.933 274.941 236.618C273.617 226.1 275.025 214.261 276.025 203.455C273.66 196.107 270.203 189.337 265.422 183.303C265.103 183.65 264.864 184.021 264.423 184.319C258.13 188.586 251.512 178.822 257.808 174.559C263.027 171.024 268.357 177.103 266.464 181.724C270.904 185.161 274.599 190.045 276.64 195.426C276.77 193.127 276.846 190.899 276.806 188.805C276.451 169.536 275.39 151.169 271.748 132.983C262.324 130.186 254.415 121.313 254.441 111.017C254.448 101.069 260.076 93.0015 258.025 82.8016C257.854 81.9159 258.807 80.9958 259.615 81.7248C259.783 81.8898 259.9 82.0745 260.052 82.2359C270.034 86.112 283.204 96.6248 285.112 107.843C286.472 115.843 285.167 129.842 275.6 132.181C277.326 139.735 278.267 147.417 278.759 155.191C280.27 151.57 282.357 148.112 285.258 146.309C284.534 144.145 284.953 141.649 287.399 139.993C293.59 135.798 300.101 145.404 293.908 149.601C291.232 151.414 288.56 150.586 286.811 148.79C283.382 152.381 281.142 156.501 279.063 161.142C279.393 170.891 279.155 180.743 278.87 190.599C280.187 187.976 281.961 185.558 284.071 183.404C280.294 176.419 284.592 167.998 290.709 163.487C294.895 160.388 298.706 158.909 303.944 159.233C310.136 159.608 316.086 159.426 322.258 159.581C322.373 159.434 322.444 159.3 322.575 159.159C322.985 158.674 323.622 158.998 323.736 159.54ZM270.835 128.719C269.07 120.854 266.842 113.019 263.856 105.148C263.614 104.507 264.6 103.995 264.948 104.6C269.476 112.424 272.54 120.49 274.696 128.72C283.593 120.033 284.142 106.492 274.472 97.652C270.812 94.2947 266.262 91.6149 262.54 88.2586C262.766 91.7524 261.645 95.5759 260.701 98.8639C258.993 104.771 257.508 110.489 260.226 116.495C262.707 121.996 266.548 125.247 270.835 128.719ZM232.276 147.549C231.347 143.832 230.314 140.147 229.814 136.346C229.749 135.871 230.438 135.647 230.675 136.04C232.97 139.712 234.407 143.662 235.34 147.737C243.631 141.903 247.151 132.7 236.79 125.247C232.725 122.321 228.569 119.927 225.812 116.124C226.056 121.138 223.114 125.983 222.385 131.199C221.312 138.89 225.489 145.173 232.276 147.549ZM196.375 82.6488C192.203 74.6081 187.47 66.8269 182.735 58.947C182.565 58.6631 182.964 58.3935 183.162 58.6573C188.203 65.2773 193.479 72.1428 198.058 79.3819C199.312 73.7716 201.896 68.4605 199.201 62.5292C195.944 55.3614 190.777 50.3312 183.719 46.9287C180.884 45.5636 177.888 44.5707 175.221 43.1223C176.338 46.406 176.634 50.057 177.007 53.656C178.338 66.5701 185.512 76.27 196.375 82.6488ZM165.165 119.021C162.823 105.515 159.629 91.465 143.01 89.0389C139.183 88.4778 134.984 88.637 131.293 87.7102C133.75 91.7913 134.445 97.3927 136.122 101.845C141.466 115.919 153.171 117.64 164.574 122.763C157.246 114.93 149.329 107.68 142.261 99.6164C141.763 99.0537 142.663 98.3711 143.202 98.7812C151.441 104.968 158.57 111.795 165.165 119.021ZM160.609 146.701C154.854 148.789 151.316 153.803 146.119 156.481C151.448 159.169 154.991 165.104 160.879 167.311C165.488 169.041 172.281 170.197 175.703 165.552C177.258 163.433 178.177 161.046 179.721 158.923C174.281 157.829 168.751 157.244 163.364 157.2C163.109 157.198 163.089 156.857 163.336 156.824C168.497 156.112 173.647 156.048 178.666 156.616C176.025 149.403 168.954 143.681 160.609 146.701ZM252.247 224.398C249.826 216.25 245.741 209.84 236.083 208.755C229.85 208.047 225.03 209.852 219.587 212.644C217.818 213.559 216.419 214.24 214.743 214.556C220.702 219.81 222.972 229.186 230.671 232.913C239.367 237.124 244.429 232.542 250.02 227.394C244.723 226.045 239.439 224.687 234.865 222.161C234.256 221.822 234.541 220.883 235.247 221.003C239.7 221.762 245.981 222.736 252.247 224.398ZM182.738 215.042C182.837 210.499 183.51 205.886 181.945 201.503C178.802 192.682 172.368 187.21 163.114 185.764C158.221 184.995 152.779 184.929 148.162 183.064C151.638 190.851 149.786 200.43 155.492 207.291C161.843 214.918 171.542 215.039 180.224 218.026C174.155 212.241 168.425 206.103 163.15 199.607C162.795 199.161 163.467 198.61 163.885 198.955C170.4 204.296 176.593 209.724 182.738 215.042ZM198.165 266.186C200.133 262.633 203.186 259.645 206.746 257.248C198.805 253.054 186.837 257.921 183.067 265.645C180.701 270.501 179.365 276.215 176.651 280.967C181.323 280.435 186.383 282.313 190.989 283.023C198.662 284.191 207.126 280.856 208.295 272.132C208.765 268.714 208.215 265.534 207.944 262.252C205.051 264.074 202.156 265.88 199.178 267.327C198.526 267.633 197.836 266.774 198.165 266.186ZM320.988 161.609C316.436 164.541 311.314 164.255 305.847 163.611C294.57 162.261 286.47 170.594 286.402 181.174C289.828 178.306 293.817 176.157 297.833 175.059C298.357 174.913 298.989 175.593 298.498 176.04C295.679 178.576 292.649 180.815 289.849 183.322C298.27 187.201 306.816 194.217 314.22 183.548C317.941 178.193 319.411 172.637 320.037 166.252C320.23 164.25 320.413 162.905 320.988 161.609Z" fill="#E9D6CF"/>
<path d="M322.357 329.987C322.028 329.6 321.678 329.215 321.339 328.828C320.675 314.177 303.715 247.697 279.235 271.603C264.803 285.705 298.464 319.329 315.902 329.736C295.679 328.798 276.379 324.455 257.855 317.59C257.11 316.994 256.348 316.368 255.594 315.763C256.327 299.279 253.928 280.448 248.834 264.851C245.86 255.753 235.788 240.351 223.755 243.824C211.129 247.465 215.301 263.808 217.92 273.159C222.447 289.359 233.386 302.401 246.214 312.912C226.732 304.467 208.101 293.392 190.19 280.709C189.966 280.343 189.734 279.986 189.506 279.626C189.535 279.587 189.578 279.566 189.611 279.513C198.354 266.839 200.469 243.626 194.033 229.333C189.814 219.962 176.522 212.19 168.615 222.767C161.688 232.033 167.171 246.015 170.969 255.402C173.21 260.987 175.902 267.039 179.219 272.647C163.352 260.683 148.022 247.66 133.137 234.335C133.177 234.265 133.24 234.224 133.261 234.149C139.253 219.909 143.75 204.233 141.348 188.68C140.101 180.61 135.393 164.772 123.653 168.712C111.757 172.704 112.34 188.461 113.08 198.704C113.607 206.173 115.457 213.871 118.496 221.033C111.762 214.829 105.091 208.631 98.4984 202.496C90.7709 180.93 65.2022 118.507 38.8812 143.382C30.9955 150.842 39.4309 166.198 43.5737 173.144C55.2043 192.703 79.3379 199.458 97.7841 210.485C98.083 210.68 98.406 210.677 98.6942 210.586C104.576 216.501 110.548 222.318 116.612 228.054C105.483 224.059 93.2806 221.486 82.402 224.576C73.6202 227.078 63.9143 234.339 66.6455 244.502C73.2769 269.184 118.242 255.432 129.135 239.628C144.718 253.7 160.877 267.049 177.756 279.168C162.878 278.068 147.458 274.784 133.62 281.499C124.908 285.741 115.01 295.788 121.879 305.548C129.843 316.854 146.147 312.941 156.385 308.064C165.317 303.816 179.557 294.643 185.592 284.511C189.861 287.453 194.114 290.417 198.472 293.195C211.072 301.203 225.11 309.143 239.908 315.869C226.381 314.325 211.714 317.824 199.661 322.552C191.554 325.746 177.523 338.197 181.429 348.565C186.284 361.429 203.359 357.798 213.242 353.736C226.516 348.283 242.826 334.377 250.395 321.332C250.753 321.418 251.123 321.463 251.479 321.562C252.011 321.697 252.376 321.537 252.665 321.275C269.247 327.741 286.524 332.272 303.671 333.4C290.678 337.604 278.951 344.018 270.834 355.838C265.022 364.308 262.321 378.672 274.532 383.098C296.174 390.957 320.981 352.322 318.005 333.507C323.005 333.229 327.975 332.695 332.88 331.715C333.953 331.498 333.749 329.761 332.658 329.819C329.198 329.969 325.763 330.026 322.357 329.987Z" fill="#E9D6CF"/>
</g>
<defs>
<clipPath id="clip0_512_360">
<rect width="259.314" height="355.171" fill="white" transform="matrix(-0.714319 0.69982 0.69982 0.714319 185.233 0)"/>
</clipPath>
</defs>
</svg>
