<svg width="50" height="50" viewBox="0 0 50 50" fill="none" xmlns="http://www.w3.org/2000/svg">
<path d="M49.6327 24.9998C49.6327 11.2943 38.5221 0.183594 24.8165 0.183594C11.111 0.183594 0 11.2943 0 24.9998C0 37.3862 9.07537 47.6527 20.939 49.5141V32.1733H14.6379V24.9998H20.939V19.5325C20.939 13.313 24.6441 9.87735 30.3125 9.87735C33.0276 9.87735 35.8677 10.3619 35.8677 10.3619V16.4693H32.7382C29.6555 16.4693 28.6941 18.3821 28.6941 20.3446V24.9998H35.5768L34.4765 32.1733H28.6941V49.5141C40.5577 47.6527 49.6327 37.3862 49.6327 24.9998Z" fill="#4676ED"/>
<path d="M34.4763 32.1729L35.5767 24.9994H28.6939V20.3442C28.6939 18.3817 29.6553 16.4689 32.7381 16.4689H35.8675V10.3615C35.8675 10.3615 33.0274 9.87695 30.3123 9.87695C24.6439 9.87695 20.9388 13.3126 20.9388 19.5321V24.9994H14.6377V32.1729H20.9388V49.5137C22.2024 49.7122 23.4973 49.8156 24.8164 49.8156C26.1355 49.8156 27.4303 49.7122 28.6939 49.5137V32.1729H34.4763Z" fill="white"/>
</svg>
