<svg width="281" height="106" viewBox="0 0 281 106" fill="none" xmlns="http://www.w3.org/2000/svg">
<path d="M169.189 14.8966C162.114 11.7969 154.267 10.0713 146.005 10.0713C140.136 10.0713 134.478 10.9424 129.156 12.5578L169.189 51.6594V14.8966Z" fill="black"/>
<path d="M125.958 13.6348C112.952 18.4362 102.241 27.7707 95.8442 39.661H152.609L125.958 13.6348Z" fill="black"/>
<path fill-rule="evenodd" clip-rule="evenodd" d="M280.027 78.0765C210.442 52.5476 90.6024 44.6678 0 78.6352C44.4284 69.8712 91.4695 66.1287 136.985 65.8769C184.783 65.6122 231.113 69.2691 280.027 78.0765Z" fill="black"/>
<path d="M79.3108 59.6603C79.901 52.8174 81.5848 46.1716 84.3392 39.8299C87.7069 32.0633 92.5353 25.0907 98.6775 19.1038C104.824 13.117 111.984 8.4142 119.954 5.13071C128.211 1.72896 136.977 0 146.007 0C155.041 0 163.807 1.72896 172.065 5.13071C180.035 8.4142 187.194 13.117 193.337 19.1038C199.484 25.0907 204.307 32.0633 207.68 39.8299C210.683 46.7461 212.41 54.0225 212.836 61.5188C210.8 61.209 208.75 60.9106 206.68 60.6234C204.274 30.0301 178.029 5.9307 146.007 5.9307C114.588 5.9307 88.7271 29.1346 85.4987 58.9112C83.4328 59.1478 81.3698 59.3956 79.3108 59.6603Z" fill="black"/>
<path d="M118.182 56.3926C108.737 56.7925 99.2691 57.4684 89.8354 58.4428C90.5366 52.8727 92.091 47.556 94.3673 42.6279H132.135L118.182 56.3926Z" fill="black"/>
<path d="M172.234 57.0859V16.3438C184.623 22.6685 194.312 33.3301 199.173 46.2612L186.596 58.2574C181.859 57.8012 177.069 57.4069 172.234 57.0859Z" fill="black"/>
<path d="M190.531 58.6526L200.237 49.3936C201.285 52.8178 202.006 56.3772 202.359 60.0381C198.456 59.5312 194.51 59.0694 190.531 58.6526Z" fill="black"/>
<path d="M39.452 96.4381C38.4347 99.5701 37.0936 101.243 35.4289 101.459C34.556 101.572 33.8046 101.306 33.1804 100.664C32.5618 100.021 32.1688 99.115 32.0069 97.9458C31.8219 96.5851 31.9779 94.4607 32.4808 91.5738C32.9779 88.6862 33.1514 86.6666 32.9953 85.5148C32.926 85.0006 32.7352 84.59 32.4231 84.2836C32.1167 83.9778 31.7641 83.85 31.371 83.9006C30.7641 83.9789 30.2149 84.4667 29.7293 85.3639C29.2438 86.2616 29.0588 87.1374 29.1744 87.9923C29.2669 88.6468 29.6254 89.2928 30.2554 89.9298C30.5155 90.1984 30.6543 90.3888 30.6716 90.5025C30.6889 90.6332 30.5618 90.9475 30.2844 91.4448C30.0069 91.9421 29.7467 92.2062 29.5039 92.2378C29.2438 92.2716 28.9202 92.1003 28.5329 91.7241C28.1456 91.3479 27.8912 90.7458 27.7814 89.9168C27.5502 88.2334 27.8796 86.6333 28.7525 85.1172C29.6311 83.601 30.7179 82.7596 32.0069 82.5929C32.978 82.4679 33.8565 82.8069 34.6427 83.6095C35.4346 84.4121 35.9202 85.4754 36.0994 86.8C36.2785 88.1962 36.1398 90.2226 35.6832 92.8793C35.2265 95.5359 35.059 97.2965 35.1861 98.1604C35.2382 98.5704 35.3769 98.8836 35.5965 99.0993C35.822 99.315 36.0878 99.4028 36.4057 99.3623C37.0878 99.2739 37.6833 98.5665 38.1919 97.2401C38.7006 95.9138 39.0763 94.0592 39.3191 91.6751L39.8047 86.9256C39.9897 85.0552 40.2555 83.4095 40.6081 81.988C40.6428 81.8326 40.9954 81.6698 41.6602 81.4992C42.3307 81.3279 42.8163 81.2232 43.1227 81.1832C43.429 81.1438 43.5966 81.1933 43.6139 81.3324L42.6949 90.7447C42.4406 93.5033 42.4001 95.5021 42.5678 96.7412C42.6429 97.2818 42.7989 97.6986 43.0474 97.9909C43.296 98.2826 43.5966 98.4066 43.9434 98.3615C44.4521 98.2956 45.088 97.7408 45.8452 96.6972C46.6025 95.6542 47.1863 94.3712 47.5967 92.8494C48.0071 91.3271 48.1112 89.8115 47.9031 88.3021C47.6834 86.6885 47.1112 85.129 46.1863 83.6241C45.9262 83.1871 45.7873 82.9117 45.7758 82.7985C45.7238 82.4234 45.9897 81.9672 46.5793 81.4299C47.1632 80.892 47.6025 80.6048 47.8799 80.5687C48.1516 80.5338 48.4753 80.8937 48.851 81.6484C49.2325 82.4025 49.4811 83.2118 49.5967 84.0752C49.9089 86.3697 49.7469 88.7808 49.1053 91.3096C48.4637 93.8378 47.5273 95.9673 46.3019 97.6975C45.0707 99.4276 43.8741 100.368 42.7123 100.518C41.8857 100.625 41.1804 100.341 40.5965 99.6665C40.0069 98.9917 39.6312 97.9154 39.452 96.4381Z" fill="black"/>
<path d="M64.3658 94.8224C63.4872 96.0028 62.0074 97.2717 59.9265 98.6296C59.4467 101.016 58.805 102.737 57.99 103.791C57.1807 104.845 56.279 105.424 55.2848 105.527C54.7819 105.58 54.354 105.452 54.013 105.142C53.6719 104.833 53.4697 104.393 53.4061 103.825C53.2212 102.101 54.4697 100.39 57.1692 98.6932L57.5796 95.7961C56.2906 97.7978 55.0824 98.8577 53.9553 98.9754C53.3483 99.0385 52.8223 98.8144 52.3888 98.3024C51.9553 97.7899 51.6835 97.0746 51.5852 96.156C51.4407 94.8347 51.5448 93.3901 51.8974 91.8222L52.6662 88.3697L56.0247 87.3447L54.9784 91.3941C54.5102 93.3451 54.331 94.7976 54.4351 95.7517C54.5218 96.5396 54.805 96.9085 55.2906 96.8578C55.7761 96.8071 56.2905 96.3115 56.8165 95.3709C57.3483 94.4304 57.7588 93.2994 58.0478 91.977L58.9437 87.7153L62.0941 86.71L60.1461 97.2942C61.8513 96.187 63.2039 94.8601 64.2039 93.313L64.3658 94.8224ZM56.9668 100.029C56.0477 100.611 55.3598 101.229 54.9032 101.883C54.4408 102.538 54.2442 103.153 54.3078 103.731C54.3714 104.317 54.6315 104.587 55.0824 104.54C55.9553 104.449 56.5853 102.945 56.9668 100.029Z" fill="black"/>
<path d="M71.2442 94.2056C70.354 95.3917 69.5679 96.2788 68.8915 96.8668C68.2152 97.4542 67.5505 97.778 66.8973 97.8377C66.2152 97.9002 65.6314 97.6327 65.1516 97.0363C64.6661 96.4393 64.3713 95.6243 64.273 94.5903C64.1863 93.679 64.2731 92.4574 64.5332 90.9255L64.8452 88.8901L63.9436 89.0258L64.1227 86.9279L65.2442 86.7724L65.9668 82.5704L69.0592 81.5605L68.2731 86.2436L69.9378 85.9856L69.7414 88.0453L67.9205 88.3708L67.4119 91.3879C67.2384 92.4366 67.1748 93.2628 67.2384 93.8682C67.2731 94.2799 67.4002 94.6072 67.6141 94.8488C67.8222 95.0904 68.0766 95.198 68.3656 95.1709C68.7702 95.1343 69.1575 94.9552 69.5217 94.6348C69.8916 94.3137 70.4176 93.6672 71.0997 92.6945L71.2442 94.2056Z" fill="black"/>
<path d="M87.7184 92.9193C87.3658 93.2989 87.0075 93.5771 86.6375 93.7551C86.2734 93.9325 85.9844 94.0294 85.7763 94.0446C85.1982 94.088 84.6144 93.8847 84.0248 93.4347C82.7415 95.5259 81.3368 96.6286 79.805 96.7429C78.6836 96.8274 77.8282 96.2028 77.2386 94.8703C76.2848 96.3188 75.1922 97.0887 73.9667 97.1805C73.169 97.2408 72.5159 96.9958 72.013 96.4467C71.5043 95.8981 71.2153 95.1102 71.1344 94.0835C71.0477 92.9779 71.0997 91.8442 71.2905 90.6828C71.4812 89.5209 71.7991 88.0938 72.2442 86.4008L75.3252 85.5222L74.6777 88.5218C74.1344 91.1216 73.9032 92.9036 73.9783 93.8689C74.0188 94.3257 74.146 94.6912 74.3657 94.966C74.5854 95.2409 74.8454 95.367 75.146 95.3445C75.7818 95.2972 76.3715 94.7058 76.9148 93.5704C76.8108 92.1928 76.9206 90.7459 77.2559 89.2292L77.9785 85.9711L81.1056 85.0885L80.1346 89.7406C79.8224 91.2376 79.7009 92.4119 79.7703 93.2635C79.8108 93.781 79.9437 94.186 80.1749 94.4777C80.4061 94.7695 80.6894 94.9029 81.0304 94.877C81.4524 94.8455 81.834 94.645 82.1808 94.2749C82.5219 93.9049 82.9034 93.3558 83.3138 92.6276C82.8282 91.8076 82.5507 90.9419 82.4755 90.029C82.3715 88.7128 82.5796 87.5261 83.0883 86.4684C83.6027 85.4101 84.2328 84.8531 84.9785 84.7974C85.4929 84.7591 85.782 85.1696 85.8513 86.0297C85.9958 87.8809 85.5161 90.0261 84.412 92.4659C84.8398 92.8484 85.2733 93.0229 85.7184 92.9897C86.2502 92.9503 86.8745 92.422 87.597 91.406L87.7184 92.9193Z" fill="black"/>
<path d="M98.4355 92.3055C98.054 92.7246 97.6783 93.0259 97.3083 93.2106C96.9384 93.3953 96.6436 93.4939 96.4239 93.5068C95.8517 93.5401 95.2678 93.3272 94.6782 92.8682C93.6551 94.8495 92.4065 95.883 90.9325 95.9686C90.0134 96.0221 89.2446 95.6831 88.6261 94.952C88.0134 94.221 87.6665 93.223 87.5856 91.958C87.4642 89.9553 88.0018 88.1986 89.1926 86.6876C90.3891 85.1765 91.8805 84.3694 93.6609 84.2658C94.3372 84.2264 94.8343 84.2793 95.158 84.4235C95.4817 84.5677 95.6841 84.7473 95.765 84.963C95.8517 85.1782 95.9036 85.453 95.9267 85.787C96.025 87.4293 95.7476 89.4692 95.0828 91.9056C95.5106 92.2948 95.9499 92.4767 96.395 92.4508C96.9268 92.4199 97.5743 91.8662 98.3431 90.7905L98.4355 92.3055ZM94.0655 85.168C93.9383 85.1224 93.7707 85.1055 93.5453 85.1185C92.5164 85.1787 91.7476 85.823 91.2389 87.0514C90.7302 88.2797 90.5221 89.6934 90.6203 91.2923C90.6782 92.1794 90.8459 92.862 91.1291 93.339C91.4123 93.816 91.7822 94.0413 92.2331 94.0154C92.7938 93.9827 93.3661 93.3717 93.9557 92.1827C93.1464 91.1893 92.7071 90.0955 92.6319 88.9009C92.5452 87.4952 93.025 86.2511 94.0655 85.168ZM97.4239 77.7129C97.2678 78.6827 96.8748 79.5518 96.2505 80.32C95.6262 81.0876 94.6378 81.9431 93.291 82.8854L92.5511 82.6511C93.6378 81.0628 94.3545 79.5748 94.7071 78.1882L97.4239 77.7129Z" fill="black"/>
<path d="M258.094 84.0215C257.938 84.9913 257.545 85.8604 256.92 86.6286C256.296 87.3962 255.308 88.2517 253.961 89.194L253.221 88.9597C254.308 87.3714 255.024 85.8834 255.377 84.4968L258.094 84.0215Z" fill="black"/>
<path d="M107.366 91.8889C105.482 94.144 104.002 95.2963 102.921 95.3459C102.441 95.3684 102.019 95.1612 101.667 94.7241C101.308 94.2865 101.117 93.734 101.083 93.066C101.025 91.8264 101.539 90.1374 102.638 87.9989C102.065 88.3599 101.435 88.6224 100.742 88.7868C100.279 89.8654 99.5279 91.0368 98.4816 92.3012L98.21 92.3136L98.1521 91.1269C98.7359 90.3863 99.2561 89.5956 99.7186 88.7553C99.0191 88.4528 98.655 87.9719 98.6203 87.3129C98.5857 86.6359 98.759 85.9032 99.1405 85.1147C99.5163 84.3262 100.071 83.9151 100.8 83.8813C101.418 83.8526 101.748 84.1899 101.782 84.8934C101.805 85.447 101.667 86.2462 101.36 87.2915C102.667 87.0718 103.765 85.9027 104.644 83.7822L105.725 83.6797L104.782 87.1062C104.395 88.5514 104.146 89.5342 104.037 90.0546C103.927 90.575 103.88 91.0334 103.898 91.4288C103.915 91.7983 104.008 92.0889 104.175 92.3012C104.337 92.5141 104.551 92.6144 104.817 92.602C105.1 92.589 105.366 92.4685 105.62 92.241C105.869 92.0134 106.43 91.3911 107.291 90.3728L107.366 91.8889Z" fill="black"/>
<path d="M119.101 91.4771C117.343 93.6849 115.812 94.8107 114.505 94.8546C113.973 94.8727 113.534 94.6806 113.199 94.2779C112.858 93.8758 112.673 93.3272 112.65 92.6322C112.615 91.6911 112.916 90.2414 113.54 88.2831C113.881 87.2328 114.043 86.5671 114.031 86.2855C114.02 86.0039 113.916 85.8664 113.719 85.8732C113.609 85.8771 113.465 85.9436 113.285 86.0726C113.124 86.2016 112.933 86.3795 112.719 86.607C112.528 86.816 112.314 87.0694 112.083 87.3679C111.875 87.6219 111.655 87.9109 111.418 88.2358L110.783 89.1156C110.505 89.5217 110.338 89.9452 110.285 90.3873C110.193 91.1392 110.135 91.828 110.118 92.4537C110.112 92.9206 110.118 93.5497 110.147 94.341L107.546 95.116C107.413 93.9315 107.338 93.049 107.32 92.4683C107.268 91.0524 107.372 89.7064 107.621 88.4301C107.875 87.1534 108.303 85.7127 108.904 84.1076L111.783 83.3895C111.239 85.2306 110.887 86.6774 110.736 87.7306C111.979 86.0771 112.973 84.9276 113.713 84.2821C114.453 83.6361 115.124 83.3033 115.719 83.283C116.118 83.2695 116.465 83.4272 116.742 83.7561C117.025 84.0856 117.176 84.5046 117.193 85.0143C117.222 85.8574 116.933 87.2581 116.32 89.2158C115.898 90.5596 115.696 91.4298 115.708 91.8268C115.725 92.3562 115.933 92.6142 116.32 92.6007C116.904 92.5815 117.812 91.7012 119.043 89.9598L119.101 91.4771Z" fill="black"/>
<path d="M124.372 77.9164C124.424 80.0278 123.754 81.1007 122.349 81.1339C121.667 81.1503 121.078 80.9357 120.58 80.4896C121.02 79.7045 121.355 78.8253 121.586 77.8516C122.222 78.2672 122.731 78.4711 123.112 78.4615C123.54 78.4514 123.962 78.2695 124.372 77.9164ZM124.95 91.3443C123.147 93.5532 121.789 94.6683 120.869 94.6908C120.361 94.7027 119.921 94.425 119.563 93.8573C119.199 93.289 119.002 92.5698 118.979 91.6991C118.933 89.8247 119.442 87.216 120.499 83.8722L123.505 83.1001L123.65 83.0967L122.563 87.2554C122.112 88.9743 121.898 90.1987 121.916 90.9286C121.921 91.2192 121.985 91.453 122.106 91.6304C122.228 91.8083 122.372 91.8951 122.546 91.8906C122.858 91.8832 123.164 91.7503 123.471 91.4924C123.777 91.2339 124.257 90.6785 124.91 89.827L124.95 91.3443Z" fill="black"/>
<path d="M137.736 91.1557C136.482 92.5096 135.586 93.3922 135.043 93.8039C134.505 94.2156 133.979 94.4245 133.482 94.4313C132.228 94.447 131.621 93.2272 131.661 90.771C130.881 92.0399 130.164 92.9777 129.499 93.5842C128.835 94.1914 128.147 94.4994 127.436 94.5084C126.736 94.5175 126.135 94.1621 125.638 93.4423C125.141 92.7225 124.887 91.8343 124.875 90.7789C124.858 89.4587 125.164 88.1961 125.806 86.9914C126.442 85.7861 127.268 84.8078 128.28 84.0554C129.297 83.3029 130.193 82.9222 130.979 82.912C131.973 82.8991 132.673 83.3964 133.083 84.4034L135.499 82.8805L136.164 82.8721L135.164 86.7531C134.65 88.7046 134.401 90.0417 134.407 90.7631C134.418 91.5195 134.667 91.8946 135.153 91.8884C135.459 91.8845 135.8 91.6975 136.164 91.3275C136.534 90.9574 137.049 90.3942 137.713 89.6378L137.736 91.1557ZM129.031 91.9932C129.823 91.983 130.563 91.2233 131.245 89.7139C131.927 88.2045 132.262 86.8162 132.245 85.5496C132.233 85.0568 132.129 84.6726 131.927 84.3984C131.731 84.1235 131.459 83.9883 131.129 83.9928C130.332 84.003 129.592 84.7605 128.904 86.2654C128.21 87.7703 127.875 89.1518 127.892 90.41C127.898 90.8853 128.008 91.2689 128.222 91.5612C128.436 91.8529 128.707 91.9971 129.031 91.9932Z" fill="black"/>
<path d="M155.089 89.9893C153.61 92.9399 152.026 94.4019 150.344 94.3743C149.465 94.3603 148.766 93.9903 148.245 93.2643C147.725 92.5383 147.477 91.5859 147.5 90.4072C147.523 89.0346 147.997 86.9564 148.933 84.1725C149.864 81.3891 150.338 79.4168 150.361 78.2549C150.367 77.7362 150.245 77.3025 149.985 76.955C149.725 76.6075 149.396 76.4307 148.997 76.4245C148.39 76.4143 147.771 76.8182 147.159 77.6354C146.54 78.4526 146.222 79.2923 146.211 80.1546C146.199 80.8146 146.453 81.5051 146.979 82.2266C147.199 82.5296 147.309 82.738 147.303 82.8523C147.303 82.9847 147.124 83.2764 146.777 83.7281C146.43 84.1804 146.13 84.4045 145.887 84.4006C145.621 84.396 145.332 84.1803 145.003 83.7523C144.679 83.3243 144.523 82.6929 144.534 81.8566C144.563 80.1585 145.13 78.6232 146.228 77.2507C147.326 75.8776 148.529 75.2017 149.829 75.2231C150.806 75.2389 151.621 75.7007 152.28 76.6081C152.939 77.5159 153.257 78.6379 153.234 79.9738C153.199 81.3801 152.754 83.3643 151.899 85.9257C151.049 88.4877 150.615 90.2044 150.604 91.0768C150.598 91.4907 150.685 91.8202 150.875 92.0658C151.06 92.3108 151.309 92.4364 151.627 92.4414C152.321 92.4527 153.014 91.8388 153.719 90.6009C154.425 89.3624 155.078 87.5821 155.679 85.2595L156.881 80.6322C157.35 78.8091 157.864 77.2197 158.425 75.8646C158.482 75.7159 158.852 75.6056 159.54 75.5329C160.228 75.4608 160.731 75.427 161.037 75.4321C161.35 75.4372 161.5 75.5098 161.5 75.6495L159.159 84.8258C158.488 87.5173 158.141 89.4886 158.124 90.7377C158.113 91.2835 158.211 91.7188 158.407 92.0432C158.61 92.3682 158.887 92.5332 159.234 92.5389C159.748 92.5473 160.465 92.09 161.373 91.1675C162.28 90.2449 163.055 89.0605 163.691 87.6142C164.326 86.1679 164.656 84.6838 164.679 83.1615C164.708 81.5338 164.378 79.909 163.696 78.287C163.506 77.8178 163.407 77.5255 163.413 77.4112C163.419 77.0327 163.754 76.6205 164.413 76.1733C165.078 75.7267 165.552 75.5053 165.835 75.5104C166.107 75.5143 166.373 75.917 166.633 76.7179C166.893 77.5188 167.014 78.3546 166.997 79.2258C166.957 81.5395 166.431 83.901 165.413 86.3093C164.396 88.717 163.147 90.6882 161.667 92.2218C160.188 93.756 158.864 94.5129 157.691 94.4938C156.858 94.4802 156.205 94.0978 155.725 93.3465C155.251 92.5952 155.037 91.4761 155.089 89.9893Z" fill="black"/>
<path d="M171.228 83.8723C171.783 83.7326 172.338 83.6211 172.899 83.5389C173.454 83.4566 173.789 83.4172 173.905 83.4212C173.98 83.4234 174.02 83.46 174.015 83.5304C174.015 83.6622 173.974 83.7974 173.905 83.9359C173.766 84.3358 173.691 84.7205 173.673 85.0899C173.662 85.5467 173.876 86.1792 174.327 86.9874C174.772 87.7956 174.98 88.5384 174.957 89.2154C174.911 90.5609 174.281 91.8388 173.078 93.048C171.87 94.2578 170.645 94.8413 169.402 94.7996C168.858 94.781 168.373 94.6064 167.939 94.2747C167.512 93.9429 167.298 93.5971 167.309 93.2361C167.321 93.0255 167.552 92.6324 168.015 92.0579C168.477 91.484 168.801 91.1996 168.991 91.2063C169.246 91.2148 169.46 91.5831 169.633 92.3108C169.806 93.039 170.13 93.4107 170.616 93.427C171.101 93.4434 171.564 93.2102 172.003 92.7275C172.448 92.2454 172.679 91.7177 172.697 91.1461C172.72 90.5919 172.477 89.8439 171.968 88.9028C171.46 87.9611 171.13 87.1755 170.98 86.5447C170.003 88.1583 168.777 89.8034 167.303 91.4795L167.032 91.4699L167.072 90.2827C169.095 88.053 170.483 85.9161 171.228 83.8723Z" fill="black"/>
<path d="M183.223 86.0654C183.835 85.3287 184.402 84.7903 184.928 84.4507C185.454 84.1105 186.026 83.9562 186.645 83.9866C187.442 84.026 188.078 84.3989 188.546 85.1046C189.009 85.8108 189.217 86.717 189.159 87.8248C189.055 89.7668 188.362 91.5189 187.067 93.0807C185.772 94.643 184.419 95.3887 182.997 95.3188C182.604 95.2991 182.292 95.2349 182.067 95.1274C181.841 95.0192 181.552 94.7799 181.2 94.4098C180.483 97.1679 179.997 99.3824 179.743 101.053L176.697 101.497C177.471 97.4117 178.408 93.2812 179.494 89.1056C178.373 90.5744 177.616 91.4755 177.234 91.8089L176.963 91.7954L177.026 90.6093C178.621 88.882 179.974 86.7547 181.084 84.2276L183.801 83.8193L183.223 86.0654ZM181.483 93.0486C181.853 93.8258 182.292 94.2262 182.789 94.251C183.593 94.2904 184.333 93.6512 185.02 92.3322C185.703 91.0137 186.078 89.7127 186.148 88.4292C186.182 87.7528 186.084 87.1991 185.859 86.7694C185.633 86.3397 185.321 86.115 184.922 86.0958C184.616 86.08 184.28 86.218 183.922 86.5092C183.569 86.7998 183.292 87.145 183.096 87.5455C182.899 87.9454 182.662 88.6499 182.39 89.6586L181.483 93.0486Z" fill="black"/>
<path d="M201.639 93.2067C201.206 93.5751 200.795 93.8274 200.402 93.9648C200.015 94.1017 199.703 94.1631 199.483 94.1484C198.917 94.1101 198.367 93.8268 197.836 93.2974C196.564 95.1357 195.188 96.0059 193.72 95.9079C192.801 95.8465 192.078 95.4151 191.564 94.6137C191.05 93.8117 190.836 92.7787 190.922 91.5143C191.061 89.5127 191.824 87.8366 193.211 86.4866C194.593 85.1366 196.177 84.521 197.957 84.6393C198.628 84.6844 199.113 84.7981 199.414 84.9812C199.72 85.1648 199.894 85.3681 199.951 85.5928C200.009 85.817 200.026 86.0957 200.003 86.4291C199.888 88.0709 199.339 90.059 198.368 92.3935C198.743 92.8328 199.148 93.0677 199.593 93.097C200.125 93.1324 200.842 92.6638 201.743 91.6923L201.639 93.2067ZM198.235 85.5843C198.119 85.5235 197.951 85.4858 197.732 85.4711C196.703 85.4024 195.853 85.9459 195.188 87.101C194.524 88.2567 194.136 89.6332 194.021 91.231C193.957 92.1181 194.038 92.8153 194.258 93.3239C194.477 93.8325 194.813 94.1017 195.263 94.1315C195.824 94.1693 196.472 93.6348 197.211 92.5281C196.541 91.4428 196.246 90.3029 196.327 89.1089C196.425 87.7042 197.061 86.5294 198.235 85.5843Z" fill="black"/>
<path d="M219.183 94.6611C218.096 95.6456 217.177 96.3749 216.426 96.8492C215.674 97.3239 214.969 97.5323 214.304 97.4754C213.778 97.4304 213.385 97.1955 213.119 96.7709C212.848 96.3456 212.744 95.796 212.807 95.1207C212.894 94.1739 213.212 92.9912 213.773 91.573C214.333 90.1543 214.622 89.287 214.651 88.9716C214.68 88.6911 214.559 88.5396 214.299 88.5171C214.223 88.5104 214.125 88.5329 214.01 88.5847C213.882 88.6359 213.738 88.712 213.582 88.8134C213.42 88.9232 213.241 89.0583 213.056 89.2188C212.865 89.3788 212.663 89.5652 212.455 89.7764C212.229 89.9871 211.998 90.2191 211.767 90.4737C211.38 90.8995 211.143 91.2633 211.05 91.5646L210.484 93.4114L209.489 96.4538L206.432 96.799L208.067 91.4807C208.189 91.0938 208.345 90.5238 208.536 89.7714C208.721 89.0189 208.825 88.5684 208.836 88.4191C208.865 88.1212 208.784 87.964 208.605 87.9488C208.547 87.9438 208.466 87.968 208.356 88.0204C208.235 88.0716 208.09 88.1522 207.929 88.262C207.744 88.387 207.541 88.5379 207.328 88.7137C207.096 88.9057 206.842 89.1271 206.576 89.3777C206.287 89.6447 205.986 89.9414 205.68 90.2687C205.258 90.7091 204.969 91.2413 204.819 91.8642C204.622 92.6071 204.478 93.2745 204.374 93.867C204.264 94.4583 204.171 95.1218 204.102 95.8574L201.403 96.3282C201.431 95.3144 201.478 94.4702 201.536 93.7955C201.686 92.1909 201.957 90.8082 202.368 89.6458C202.773 88.4839 203.391 87.1389 204.212 85.6104L207.143 85.2393C206.495 86.6236 205.975 87.9702 205.57 89.278C207.94 86.7171 209.697 85.4848 210.825 85.5817C211.235 85.6172 211.553 85.8323 211.778 86.2265C211.998 86.6214 212.085 87.1209 212.027 87.7258C212.004 88.0063 211.917 88.5205 211.773 89.2673C213.241 87.9009 214.287 87.0167 214.911 86.6152C215.53 86.2136 216.085 86.034 216.576 86.0762C217.01 86.1134 217.351 86.337 217.593 86.7464C217.836 87.1559 217.929 87.6588 217.877 88.2547C217.79 89.193 217.449 90.3791 216.848 91.8118C216.252 93.2452 215.929 94.1981 215.888 94.6707C215.842 95.1612 215.981 95.4197 216.304 95.4479C216.512 95.4653 216.813 95.3386 217.206 95.0677C217.599 94.7968 218.305 94.157 219.316 93.1489L219.183 94.6611Z" fill="black"/>
<path d="M230.825 95.8899C228.767 97.8341 227.085 98.7374 225.784 98.6012C225.253 98.546 224.854 98.2953 224.57 97.8504C224.293 97.4055 224.195 96.8372 224.27 96.1456C224.374 95.2095 224.877 93.8156 225.784 91.9633C226.27 90.9698 226.53 90.3328 226.559 90.0528C226.593 89.7729 226.507 89.6225 226.31 89.6017C226.2 89.5904 226.044 89.6367 225.854 89.7397C225.674 89.845 225.461 89.9954 225.218 90.1908C224.998 90.3716 224.75 90.5935 224.472 90.8565C224.229 91.079 223.969 91.3353 223.692 91.6242L222.935 92.4082C222.599 92.7709 222.374 93.1679 222.252 93.5977C222.05 94.3293 221.9 95.0034 221.79 95.6201C221.715 96.0814 221.634 96.706 221.547 97.4933L218.859 97.9016C218.9 96.7116 218.952 95.8274 219.015 95.2501C219.172 93.8415 219.466 92.5225 219.906 91.2936C220.339 90.0647 220.969 88.6972 221.802 87.1907L224.755 86.877C223.946 88.624 223.391 90.0083 223.085 91.03C224.559 89.5645 225.703 88.5632 226.536 88.0259C227.362 87.4886 228.073 87.2509 228.663 87.3129C229.062 87.3551 229.38 87.5584 229.611 87.9228C229.842 88.2872 229.929 88.7226 229.871 89.2295C229.779 90.0686 229.287 91.4147 228.397 93.2688C227.784 94.541 227.461 95.3746 227.414 95.7694C227.357 96.296 227.524 96.5798 227.911 96.6204C228.49 96.6806 229.513 95.9344 230.992 94.3811L230.825 95.8899Z" fill="black"/>
<path d="M238.079 83.2085C237.819 85.3059 236.998 86.2735 235.599 86.1118C234.923 86.033 234.374 85.7384 233.946 85.2287C234.501 84.5123 234.958 83.6884 235.328 82.7568C235.9 83.257 236.374 83.529 236.749 83.5729C237.177 83.6225 237.617 83.5008 238.079 83.2085ZM236.686 96.5795C234.576 98.5153 233.067 99.4299 232.154 99.324C231.651 99.2655 231.258 98.9298 230.981 98.317C230.703 97.7048 230.617 96.9659 230.726 96.1008C230.952 94.2394 231.836 91.7275 233.374 88.5646L236.46 88.2188L236.599 88.2351L234.917 92.2007C234.223 93.839 233.83 95.0206 233.744 95.746C233.703 96.0344 233.732 96.2749 233.825 96.4675C233.917 96.6595 234.05 96.766 234.223 96.7862C234.53 96.8217 234.854 96.7333 235.2 96.5204C235.541 96.3075 236.096 95.8249 236.865 95.0724L236.686 96.5795Z" fill="black"/>
<path d="M245.571 97.6889C244.426 98.6537 243.42 99.3453 242.559 99.7643C241.692 100.183 240.779 100.331 239.819 100.21C238.75 100.075 237.941 99.5864 237.38 98.7444C236.825 97.9024 236.628 96.8616 236.796 95.622C237.039 93.7718 237.842 92.1718 239.201 90.8212C240.553 89.4706 241.935 88.8844 243.345 89.0623C244.079 89.1547 244.634 89.438 245.022 89.9128C245.403 90.387 245.553 90.9648 245.461 91.6452C245.224 93.4519 243.293 94.6995 239.686 95.3877C239.773 97.1297 240.478 98.0843 241.813 98.2521C242.328 98.318 242.848 98.2257 243.362 97.975C243.871 97.725 244.675 97.128 245.773 96.1835L245.571 97.6889ZM239.709 94.486C241.807 94.112 242.969 93.0785 243.195 91.3856C243.305 90.5475 243.085 90.0941 242.536 90.0243C242.016 89.959 241.461 90.3346 240.871 91.1518C240.281 91.9696 239.894 93.0808 239.709 94.486Z" fill="black"/>
<path d="M257.137 99.2914C255.004 101.162 253.293 102.007 251.998 101.825C251.472 101.751 251.079 101.487 250.819 101.033C250.553 100.578 250.472 100.007 250.576 99.3184C250.715 98.3863 251.27 97.011 252.247 95.1913C252.767 94.2152 253.045 93.5878 253.085 93.3096C253.131 93.0308 253.05 92.8776 252.854 92.85C252.744 92.8342 252.588 92.8753 252.391 92.9716C252.207 93.0708 251.993 93.2133 251.738 93.4003C251.513 93.5732 251.259 93.786 250.97 94.0395C250.721 94.2535 250.455 94.5002 250.166 94.7801L249.38 95.5365C249.033 95.8879 248.79 96.2766 248.652 96.7018C248.426 97.4261 248.247 98.094 248.114 98.7073C248.027 99.1652 247.923 99.7864 247.807 100.57L245.102 100.885C245.189 99.6969 245.276 98.8155 245.357 98.2404C245.565 96.8381 245.912 95.5303 246.391 94.3177C246.871 93.1046 247.553 91.7596 248.438 90.2835L251.403 90.0723C250.53 91.7906 249.923 93.1547 249.582 94.1645C251.102 92.7515 252.287 91.7906 253.137 91.2826C253.987 90.7746 254.704 90.5617 255.287 90.6439C255.692 90.7002 255.998 90.9143 256.218 91.2865C256.432 91.6588 256.507 92.0976 256.432 92.6016C256.305 93.4369 255.767 94.7655 254.808 96.5869C254.149 97.8372 253.79 98.6589 253.732 99.052C253.657 99.5764 253.808 99.8653 254.195 99.9193C254.773 99.9999 255.825 99.2897 257.357 97.7888L257.137 99.2914Z" fill="black"/>
</svg>
